<?xml version="1.0" encoding="UTF-8" standalone="no"?><svg xmlns="http://www.w3.org/2000/svg" xmlns:xlink="http://www.w3.org/1999/xlink" contentScriptType="application/ecmascript" contentStyleType="text/css" height="897px" preserveAspectRatio="none" style="width:1790px;height:897px;" version="1.1" viewBox="0 0 1790 897" width="1790px" zoomAndPan="magnify"><defs><filter height="300%" id="f3jki4vccso89" width="300%" x="-1" y="-1"><feGaussianBlur result="blurOut" stdDeviation="2.0"/><feColorMatrix in="blurOut" result="blurOut2" type="matrix" values="0 0 0 0 0 0 0 0 0 0 0 0 0 0 0 0 0 0 .4 0"/><feOffset dx="4.0" dy="4.0" in="blurOut2" result="blurOut3"/><feBlend in="SourceGraphic" in2="blurOut3" mode="normal"/></filter></defs><g><!--class atlast_sc.atmosphere_params.AtmosphereParams--><rect fill="#FEFECE" filter="url(#f3jki4vccso89)" height="99.2188" id="atlast_sc.atmosphere_params.AtmosphereParams" style="stroke: #A80036; stroke-width: 1.5;" width="333" x="6" y="40"/><ellipse cx="106.75" cy="56" fill="#ADD1B2" rx="11" ry="11" style="stroke: #A80036; stroke-width: 1.0;"/><path d="M109.7188,61.6406 Q109.1406,61.9375 108.5,62.0781 Q107.8594,62.2344 107.1563,62.2344 Q104.6563,62.2344 103.3281,60.5938 Q102.0156,58.9375 102.0156,55.8125 Q102.0156,52.6875 103.3281,51.0313 Q104.6563,49.375 107.1563,49.375 Q107.8594,49.375 108.5,49.5313 Q109.1563,49.6875 109.7188,49.9844 L109.7188,52.7031 Q109.0938,52.125 108.5,51.8594 Q107.9063,51.5781 107.2813,51.5781 Q105.9375,51.5781 105.25,52.6563 Q104.5625,53.7188 104.5625,55.8125 Q104.5625,57.9063 105.25,58.9844 Q105.9375,60.0469 107.2813,60.0469 Q107.9063,60.0469 108.5,59.7813 Q109.0938,59.5 109.7188,58.9219 L109.7188,61.6406 Z "/><text fill="#000000" font-family="sans-serif" font-size="12" lengthAdjust="spacingAndGlyphs" textLength="123" x="127.25" y="60.1543">AtmosphereParams</text><line style="stroke: #A80036; stroke-width: 1.5;" x1="7" x2="338" y1="72" y2="72"/><text fill="#000000" font-family="sans-serif" font-size="11" lengthAdjust="spacingAndGlyphs" textLength="94" x="12" y="86.2104">T_atm : Quantity</text><text fill="#000000" font-family="sans-serif" font-size="11" lengthAdjust="spacingAndGlyphs" textLength="83" x="12" y="99.0151">tau_atm : float</text><line style="stroke: #A80036; stroke-width: 1.5;" x1="7" x2="338" y1="105.6094" y2="105.6094"/><text fill="#000000" font-family="sans-serif" font-size="11" lengthAdjust="spacingAndGlyphs" textLength="321" x="12" y="119.8198">AtmosphereParams(obs_freq : Quantity, weather : float,</text><text fill="#000000" font-family="sans-serif" font-size="11" lengthAdjust="spacingAndGlyphs" textLength="114" x="12" y="132.6245">elevation : Quantity)</text><!--class atlast_sc.models.CalculationInput--><rect fill="#FEFECE" filter="url(#f3jki4vccso89)" height="86.4141" id="atlast_sc.models.CalculationInput" style="stroke: #A80036; stroke-width: 1.5;" width="219" x="1434" y="417"/><ellipse cx="1488.75" cy="433" fill="#ADD1B2" rx="11" ry="11" style="stroke: #A80036; stroke-width: 1.0;"/><path d="M1491.7188,438.6406 Q1491.1406,438.9375 1490.5,439.0781 Q1489.8594,439.2344 1489.1563,439.2344 Q1486.6563,439.2344 1485.3281,437.5938 Q1484.0156,435.9375 1484.0156,432.8125 Q1484.0156,429.6875 1485.3281,428.0313 Q1486.6563,426.375 1489.1563,426.375 Q1489.8594,426.375 1490.5,426.5313 Q1491.1563,426.6875 1491.7188,426.9844 L1491.7188,429.7031 Q1491.0938,429.125 1490.5,428.8594 Q1489.9063,428.5781 1489.2813,428.5781 Q1487.9375,428.5781 1487.25,429.6563 Q1486.5625,430.7188 1486.5625,432.8125 Q1486.5625,434.9063 1487.25,435.9844 Q1487.9375,437.0469 1489.2813,437.0469 Q1489.9063,437.0469 1490.5,436.7813 Q1491.0938,436.5 1491.7188,435.9219 L1491.7188,438.6406 Z "/><text fill="#000000" font-family="sans-serif" font-size="12" lengthAdjust="spacingAndGlyphs" textLength="101" x="1509.25" y="437.1543">CalculationInput</text><line style="stroke: #A80036; stroke-width: 1.5;" x1="1435" x2="1652" y1="449" y2="449"/><text fill="#000000" font-family="sans-serif" font-size="11" lengthAdjust="spacingAndGlyphs" textLength="96" x="1440" y="463.2104">T_cmb : Quantity</text><text fill="#000000" font-family="sans-serif" font-size="11" lengthAdjust="spacingAndGlyphs" textLength="207" x="1440" y="476.0151">instrument_setup : InstrumentSetup</text><text fill="#000000" font-family="sans-serif" font-size="11" lengthAdjust="spacingAndGlyphs" textLength="127" x="1440" y="488.8198">user_input : UserInput</text><line style="stroke: #A80036; stroke-width: 1.5;" x1="1435" x2="1652" y1="495.4141" y2="495.4141"/><!--class atlast_sc.calculator.Calculator--><rect fill="#FEFECE" filter="url(#f3jki4vccso89)" height="457.75" id="atlast_sc.calculator.Calculator" style="stroke: #A80036; stroke-width: 1.5;" width="371" x="796" y="231"/><ellipse cx="945.75" cy="247" fill="#ADD1B2" rx="11" ry="11" style="stroke: #A80036; stroke-width: 1.0;"/><path d="M948.7188,252.6406 Q948.1406,252.9375 947.5,253.0781 Q946.8594,253.2344 946.1563,253.2344 Q943.6563,253.2344 942.3281,251.5938 Q941.0156,249.9375 941.0156,246.8125 Q941.0156,243.6875 942.3281,242.0313 Q943.6563,240.375 946.1563,240.375 Q946.8594,240.375 947.5,240.5313 Q948.1563,240.6875 948.7188,240.9844 L948.7188,243.7031 Q948.0938,243.125 947.5,242.8594 Q946.9063,242.5781 946.2813,242.5781 Q944.9375,242.5781 944.25,243.6563 Q943.5625,244.7188 943.5625,246.8125 Q943.5625,248.9063 944.25,249.9844 Q944.9375,251.0469 946.2813,251.0469 Q946.9063,251.0469 947.5,250.7813 Q948.0938,250.5 948.7188,249.9219 L948.7188,252.6406 Z "/><text fill="#000000" font-family="sans-serif" font-size="12" lengthAdjust="spacingAndGlyphs" textLength="63" x="966.25" y="251.1543">Calculator</text><line style="stroke: #A80036; stroke-width: 1.5;" x1="797" x2="1166" y1="263" y2="263"/><text fill="#000000" font-family="sans-serif" font-size="11" lengthAdjust="spacingAndGlyphs" textLength="117" x="802" y="277.2104">bandwidth : Quantity</text><text fill="#000000" font-family="sans-serif" font-size="11" lengthAdjust="spacingAndGlyphs" textLength="125" x="802" y="290.0151">dish_radius : Quantity</text><text fill="#000000" font-family="sans-serif" font-size="11" lengthAdjust="spacingAndGlyphs" textLength="110" x="802" y="302.8198">elevation : Quantity</text><text fill="#000000" font-family="sans-serif" font-size="11" lengthAdjust="spacingAndGlyphs" textLength="68" x="802" y="315.6245">eta_a : float</text><text fill="#000000" font-family="sans-serif" font-size="11" lengthAdjust="spacingAndGlyphs" textLength="90" x="802" y="328.4292">eta_block : float</text><text fill="#000000" font-family="sans-serif" font-size="11" lengthAdjust="spacingAndGlyphs" textLength="76" x="802" y="341.2339">eta_eff : float</text><text fill="#000000" font-family="sans-serif" font-size="11" lengthAdjust="spacingAndGlyphs" textLength="70" x="802" y="354.0386">eta_ill : float</text><text fill="#000000" font-family="sans-serif" font-size="11" lengthAdjust="spacingAndGlyphs" textLength="78" x="802" y="366.8433">eta_pol : float</text><text fill="#000000" font-family="sans-serif" font-size="11" lengthAdjust="spacingAndGlyphs" textLength="68" x="802" y="379.6479">eta_s : float</text><text fill="#000000" font-family="sans-serif" font-size="11" lengthAdjust="spacingAndGlyphs" textLength="84" x="802" y="392.4526">eta_spill : float</text><text fill="#000000" font-family="sans-serif" font-size="11" lengthAdjust="spacingAndGlyphs" textLength="44" x="802" y="405.2573">g : float</text><text fill="#000000" font-family="sans-serif" font-size="11" lengthAdjust="spacingAndGlyphs" textLength="67" x="802" y="418.062">n_pol : float</text><text fill="#000000" font-family="sans-serif" font-size="11" lengthAdjust="spacingAndGlyphs" textLength="109" x="802" y="430.8667">obs_freq : Quantity</text><text fill="#000000" font-family="sans-serif" font-size="11" lengthAdjust="spacingAndGlyphs" textLength="84" x="802" y="443.6714">sefd : Quantity</text><text fill="#000000" font-family="sans-serif" font-size="11" lengthAdjust="spacingAndGlyphs" textLength="116" x="802" y="456.4761">sensitivity : Quantity</text><text fill="#000000" font-family="sans-serif" font-size="11" lengthAdjust="spacingAndGlyphs" textLength="131" x="802" y="469.2808">surface_rms : Quantity</text><text fill="#000000" font-family="sans-serif" font-size="11" lengthAdjust="spacingAndGlyphs" textLength="83" x="802" y="482.0854">t_int : Quantity</text><text fill="#000000" font-family="sans-serif" font-size="11" lengthAdjust="spacingAndGlyphs" textLength="97" x="802" y="494.8901">T_amb : Quantity</text><text fill="#000000" font-family="sans-serif" font-size="11" lengthAdjust="spacingAndGlyphs" textLength="94" x="802" y="507.6948">T_atm : Quantity</text><text fill="#000000" font-family="sans-serif" font-size="11" lengthAdjust="spacingAndGlyphs" textLength="96" x="802" y="520.4995">T_cmb : Quantity</text><text fill="#000000" font-family="sans-serif" font-size="11" lengthAdjust="spacingAndGlyphs" textLength="83" x="802" y="533.3042">T_rx : Quantity</text><text fill="#000000" font-family="sans-serif" font-size="11" lengthAdjust="spacingAndGlyphs" textLength="96" x="802" y="546.1089">T_sys  : Quantity</text><text fill="#000000" font-family="sans-serif" font-size="11" lengthAdjust="spacingAndGlyphs" textLength="83" x="802" y="558.9136">tau_atm : float</text><text fill="#000000" font-family="sans-serif" font-size="11" lengthAdjust="spacingAndGlyphs" textLength="83" x="802" y="571.7183">weather : float</text><text fill="#000000" font-family="sans-serif" font-size="11" lengthAdjust="spacingAndGlyphs" textLength="127" x="802" y="584.5229">user_input : UserInput</text><text fill="#000000" font-family="sans-serif" font-size="11" lengthAdjust="spacingAndGlyphs" textLength="203" x="802" y="597.3276">calculation_inputs : CalculationInput</text><text fill="#000000" font-family="sans-serif" font-size="11" lengthAdjust="spacingAndGlyphs" textLength="214" x="802" y="610.1323">derived_parameters : DerivedParams</text><text fill="#000000" font-family="sans-serif" font-size="11" lengthAdjust="spacingAndGlyphs" textLength="207" x="802" y="622.937">instrument_setup : InstrumentSetup</text><line style="stroke: #A80036; stroke-width: 1.5;" x1="797" x2="1166" y1="629.5313" y2="629.5313"/><text fill="#000000" font-family="sans-serif" font-size="11" lengthAdjust="spacingAndGlyphs" textLength="289" x="802" y="643.7417">Calculator(user_input: dict, instrument_setup: dict)</text><text fill="#000000" font-family="sans-serif" font-size="11" lengthAdjust="spacingAndGlyphs" textLength="308" x="802" y="656.5464">calculate_sensitivity(t_int, update_calculator): Quantity</text><text fill="#000000" font-family="sans-serif" font-size="11" lengthAdjust="spacingAndGlyphs" textLength="359" x="802" y="669.3511">calculate_t_integration(sensitivity, update_calculator) : Quantity</text><text fill="#000000" font-family="sans-serif" font-size="11" lengthAdjust="spacingAndGlyphs" textLength="38" x="802" y="682.1558">reset()</text><!--class atlast_sc.config.Config--><rect fill="#FEFECE" filter="url(#f3jki4vccso89)" height="112.0234" id="atlast_sc.config.Config" style="stroke: #A80036; stroke-width: 1.5;" width="280" x="1241.5" y="762"/><ellipse cx="1357.75" cy="778" fill="#ADD1B2" rx="11" ry="11" style="stroke: #A80036; stroke-width: 1.0;"/><path d="M1360.7188,783.6406 Q1360.1406,783.9375 1359.5,784.0781 Q1358.8594,784.2344 1358.1563,784.2344 Q1355.6563,784.2344 1354.3281,782.5938 Q1353.0156,780.9375 1353.0156,777.8125 Q1353.0156,774.6875 1354.3281,773.0313 Q1355.6563,771.375 1358.1563,771.375 Q1358.8594,771.375 1359.5,771.5313 Q1360.1563,771.6875 1360.7188,771.9844 L1360.7188,774.7031 Q1360.0938,774.125 1359.5,773.8594 Q1358.9063,773.5781 1358.2813,773.5781 Q1356.9375,773.5781 1356.25,774.6563 Q1355.5625,775.7188 1355.5625,777.8125 Q1355.5625,779.9063 1356.25,780.9844 Q1356.9375,782.0469 1358.2813,782.0469 Q1358.9063,782.0469 1359.5,781.7813 Q1360.0938,781.5 1360.7188,780.9219 L1360.7188,783.6406 Z "/><text fill="#000000" font-family="sans-serif" font-size="12" lengthAdjust="spacingAndGlyphs" textLength="39" x="1378.25" y="782.1543">Config</text><line style="stroke: #A80036; stroke-width: 1.5;" x1="1242.5" x2="1520.5" y1="794" y2="794"/><text fill="#000000" font-family="sans-serif" font-size="11" lengthAdjust="spacingAndGlyphs" textLength="203" x="1247.5" y="808.2104">calculation_inputs : CalculationInput</text><text fill="#000000" font-family="sans-serif" font-size="11" lengthAdjust="spacingAndGlyphs" textLength="207" x="1247.5" y="821.0151">instrument_setup : InstrumentSetup</text><text fill="#000000" font-family="sans-serif" font-size="11" lengthAdjust="spacingAndGlyphs" textLength="127" x="1247.5" y="833.8198">user_input : UserInput</text><line style="stroke: #A80036; stroke-width: 1.5;" x1="1242.5" x2="1520.5" y1="840.4141" y2="840.4141"/><text fill="#000000" font-family="sans-serif" font-size="11" lengthAdjust="spacingAndGlyphs" textLength="268" x="1247.5" y="854.6245">Config(user_input: dict, instrument_setup: dict)</text><text fill="#000000" font-family="sans-serif" font-size="11" lengthAdjust="spacingAndGlyphs" textLength="38" x="1247.5" y="867.4292">reset()</text><!--class atlast_sc.models.DerivedParams--><rect fill="#FEFECE" filter="url(#f3jki4vccso89)" height="137.6328" id="atlast_sc.models.DerivedParams" style="stroke: #A80036; stroke-width: 1.5;" width="126" x="918.5" y="749"/><ellipse cx="933.5" cy="765" fill="#ADD1B2" rx="11" ry="11" style="stroke: #A80036; stroke-width: 1.0;"/><path d="M936.4688,770.6406 Q935.8906,770.9375 935.25,771.0781 Q934.6094,771.2344 933.9063,771.2344 Q931.4063,771.2344 930.0781,769.5938 Q928.7656,767.9375 928.7656,764.8125 Q928.7656,761.6875 930.0781,760.0313 Q931.4063,758.375 933.9063,758.375 Q934.6094,758.375 935.25,758.5313 Q935.9063,758.6875 936.4688,758.9844 L936.4688,761.7031 Q935.8438,761.125 935.25,760.8594 Q934.6563,760.5781 934.0313,760.5781 Q932.6875,760.5781 932,761.6563 Q931.3125,762.7188 931.3125,764.8125 Q931.3125,766.9063 932,767.9844 Q932.6875,769.0469 934.0313,769.0469 Q934.6563,769.0469 935.25,768.7813 Q935.8438,768.5 936.4688,767.9219 L936.4688,770.6406 Z "/><text fill="#000000" font-family="sans-serif" font-size="12" lengthAdjust="spacingAndGlyphs" textLength="94" x="947.5" y="769.1543">DerivedParams</text><line style="stroke: #A80036; stroke-width: 1.5;" x1="919.5" x2="1043.5" y1="781" y2="781"/><text fill="#000000" font-family="sans-serif" font-size="11" lengthAdjust="spacingAndGlyphs" textLength="94" x="924.5" y="795.2104">T_atm : Quantity</text><text fill="#000000" font-family="sans-serif" font-size="11" lengthAdjust="spacingAndGlyphs" textLength="83" x="924.5" y="808.0151">T_rx : Quantity</text><text fill="#000000" font-family="sans-serif" font-size="11" lengthAdjust="spacingAndGlyphs" textLength="92" x="924.5" y="820.8198">T_sys : Quantity</text><text fill="#000000" font-family="sans-serif" font-size="11" lengthAdjust="spacingAndGlyphs" textLength="68" x="924.5" y="833.6245">eta_a : float</text><text fill="#000000" font-family="sans-serif" font-size="11" lengthAdjust="spacingAndGlyphs" textLength="68" x="924.5" y="846.4292">eta_s : float</text><text fill="#000000" font-family="sans-serif" font-size="11" lengthAdjust="spacingAndGlyphs" textLength="84" x="924.5" y="859.2339">sefd : Quantity</text><text fill="#000000" font-family="sans-serif" font-size="11" lengthAdjust="spacingAndGlyphs" textLength="83" x="924.5" y="872.0386">tau_atm : float</text><line style="stroke: #A80036; stroke-width: 1.5;" x1="919.5" x2="1043.5" y1="878.6328" y2="878.6328"/><!--class atlast_sc.efficiencies.Efficiencies--><rect fill="#FEFECE" filter="url(#f3jki4vccso89)" height="99.2188" id="atlast_sc.efficiencies.Efficiencies" style="stroke: #A80036; stroke-width: 1.5;" width="362" x="374.5" y="40"/><ellipse cx="516.25" cy="56" fill="#ADD1B2" rx="11" ry="11" style="stroke: #A80036; stroke-width: 1.0;"/><path d="M519.2188,61.6406 Q518.6406,61.9375 518,62.0781 Q517.3594,62.2344 516.6563,62.2344 Q514.1563,62.2344 512.8281,60.5938 Q511.5156,58.9375 511.5156,55.8125 Q511.5156,52.6875 512.8281,51.0313 Q514.1563,49.375 516.6563,49.375 Q517.3594,49.375 518,49.5313 Q518.6563,49.6875 519.2188,49.9844 L519.2188,52.7031 Q518.5938,52.125 518,51.8594 Q517.4063,51.5781 516.7813,51.5781 Q515.4375,51.5781 514.75,52.6563 Q514.0625,53.7188 514.0625,55.8125 Q514.0625,57.9063 514.75,58.9844 Q515.4375,60.0469 516.7813,60.0469 Q517.4063,60.0469 518,59.7813 Q518.5938,59.5 519.2188,58.9219 L519.2188,61.6406 Z "/><text fill="#000000" font-family="sans-serif" font-size="12" lengthAdjust="spacingAndGlyphs" textLength="70" x="536.75" y="60.1543">Efficiencies</text><line style="stroke: #A80036; stroke-width: 1.5;" x1="375.5" x2="735.5" y1="72" y2="72"/><text fill="#000000" font-family="sans-serif" font-size="11" lengthAdjust="spacingAndGlyphs" textLength="68" x="380.5" y="86.2104">eta_a : float</text><text fill="#000000" font-family="sans-serif" font-size="11" lengthAdjust="spacingAndGlyphs" textLength="68" x="380.5" y="99.0151">eta_s : float</text><line style="stroke: #A80036; stroke-width: 1.5;" x1="375.5" x2="735.5" y1="105.6094" y2="105.6094"/><text fill="#000000" font-family="sans-serif" font-size="11" lengthAdjust="spacingAndGlyphs" textLength="320" x="380.5" y="119.8198">Efficiencies(obs_freq : Quantity, surface_rms : Quantity,</text><text fill="#000000" font-family="sans-serif" font-size="11" lengthAdjust="spacingAndGlyphs" textLength="350" x="380.5" y="132.6245">eta_ill : float, eta_spill : float, eta_block : float, eta_pol : float)</text><!--class atlast_sc.models.InstrumentSetup--><rect fill="#FEFECE" filter="url(#f3jki4vccso89)" height="163.2422" id="atlast_sc.models.InstrumentSetup" style="stroke: #A80036; stroke-width: 1.5;" width="143" x="1472" y="8"/><ellipse cx="1489.7" cy="24" fill="#ADD1B2" rx="11" ry="11" style="stroke: #A80036; stroke-width: 1.0;"/><path d="M1492.6688,29.6406 Q1492.0906,29.9375 1491.45,30.0781 Q1490.8094,30.2344 1490.1063,30.2344 Q1487.6063,30.2344 1486.2781,28.5938 Q1484.9656,26.9375 1484.9656,23.8125 Q1484.9656,20.6875 1486.2781,19.0313 Q1487.6063,17.375 1490.1063,17.375 Q1490.8094,17.375 1491.45,17.5313 Q1492.1063,17.6875 1492.6688,17.9844 L1492.6688,20.7031 Q1492.0438,20.125 1491.45,19.8594 Q1490.8563,19.5781 1490.2313,19.5781 Q1488.8875,19.5781 1488.2,20.6563 Q1487.5125,21.7188 1487.5125,23.8125 Q1487.5125,25.9063 1488.2,26.9844 Q1488.8875,28.0469 1490.2313,28.0469 Q1490.8563,28.0469 1491.45,27.7813 Q1492.0438,27.5 1492.6688,26.9219 L1492.6688,29.6406 Z "/><text fill="#000000" font-family="sans-serif" font-size="12" lengthAdjust="spacingAndGlyphs" textLength="105" x="1504.3" y="28.1543">InstrumentSetup</text><line style="stroke: #A80036; stroke-width: 1.5;" x1="1473" x2="1614" y1="40" y2="40"/><text fill="#000000" font-family="sans-serif" font-size="11" lengthAdjust="spacingAndGlyphs" textLength="97" x="1478" y="54.2104">T_amb : Quantity</text><text fill="#000000" font-family="sans-serif" font-size="11" lengthAdjust="spacingAndGlyphs" textLength="125" x="1478" y="67.0151">dish_radius : Quantity</text><text fill="#000000" font-family="sans-serif" font-size="11" lengthAdjust="spacingAndGlyphs" textLength="90" x="1478" y="79.8198">eta_block : float</text><text fill="#000000" font-family="sans-serif" font-size="11" lengthAdjust="spacingAndGlyphs" textLength="76" x="1478" y="92.6245">eta_eff : float</text><text fill="#000000" font-family="sans-serif" font-size="11" lengthAdjust="spacingAndGlyphs" textLength="70" x="1478" y="105.4292">eta_ill : float</text><text fill="#000000" font-family="sans-serif" font-size="11" lengthAdjust="spacingAndGlyphs" textLength="78" x="1478" y="118.2339">eta_pol : float</text><text fill="#000000" font-family="sans-serif" font-size="11" lengthAdjust="spacingAndGlyphs" textLength="84" x="1478" y="131.0386">eta_spill : float</text><text fill="#000000" font-family="sans-serif" font-size="11" lengthAdjust="spacingAndGlyphs" textLength="44" x="1478" y="143.8433">g : float</text><text fill="#000000" font-family="sans-serif" font-size="11" lengthAdjust="spacingAndGlyphs" textLength="131" x="1478" y="156.6479">surface_rms : Quantity</text><line style="stroke: #A80036; stroke-width: 1.5;" x1="1473" x2="1614" y1="163.2422" y2="163.2422"/><!--class atlast_sc.temperatures.Temperatures--><rect fill="#FEFECE" filter="url(#f3jki4vccso89)" height="99.2188" id="atlast_sc.temperatures.Temperatures" style="stroke: #A80036; stroke-width: 1.5;" width="419" x="772" y="40"/><ellipse cx="933.25" cy="56" fill="#ADD1B2" rx="11" ry="11" style="stroke: #A80036; stroke-width: 1.0;"/><path d="M936.2188,61.6406 Q935.6406,61.9375 935,62.0781 Q934.3594,62.2344 933.6563,62.2344 Q931.1563,62.2344 929.8281,60.5938 Q928.5156,58.9375 928.5156,55.8125 Q928.5156,52.6875 929.8281,51.0313 Q931.1563,49.375 933.6563,49.375 Q934.3594,49.375 935,49.5313 Q935.6563,49.6875 936.2188,49.9844 L936.2188,52.7031 Q935.5938,52.125 935,51.8594 Q934.4063,51.5781 933.7813,51.5781 Q932.4375,51.5781 931.75,52.6563 Q931.0625,53.7188 931.0625,55.8125 Q931.0625,57.9063 931.75,58.9844 Q932.4375,60.0469 933.7813,60.0469 Q934.4063,60.0469 935,59.7813 Q935.5938,59.5 936.2188,58.9219 L936.2188,61.6406 Z "/><text fill="#000000" font-family="sans-serif" font-size="12" lengthAdjust="spacingAndGlyphs" textLength="88" x="953.75" y="60.1543">Temperatures</text><line style="stroke: #A80036; stroke-width: 1.5;" x1="773" x2="1190" y1="72" y2="72"/><text fill="#000000" font-family="sans-serif" font-size="11" lengthAdjust="spacingAndGlyphs" textLength="83" x="778" y="86.2104">T_rx : Quantity</text><text fill="#000000" font-family="sans-serif" font-size="11" lengthAdjust="spacingAndGlyphs" textLength="92" x="778" y="99.0151">T_sys : Quantity</text><line style="stroke: #A80036; stroke-width: 1.5;" x1="773" x2="1190" y1="105.6094" y2="105.6094"/><text fill="#000000" font-family="sans-serif" font-size="11" lengthAdjust="spacingAndGlyphs" textLength="407" x="778" y="119.8198">Temperatures(obs_freq : Quantity, T_cmb : Quantity, T_amb : Quantity,</text><text fill="#000000" font-family="sans-serif" font-size="11" lengthAdjust="spacingAndGlyphs" textLength="384" x="778" y="132.6245">g : float, eta_eff : float, atmosphere_params : AtmosphereParams)</text><!--class atlast_sc.models.UserInput--><rect fill="#FEFECE" filter="url(#f3jki4vccso89)" height="137.6328" id="atlast_sc.models.UserInput" style="stroke: #A80036; stroke-width: 1.5;" width="129" x="1650" y="20.5"/><ellipse cx="1681.2" cy="36.5" fill="#ADD1B2" rx="11" ry="11" style="stroke: #A80036; stroke-width: 1.0;"/><path d="M1684.1688,42.1406 Q1683.5906,42.4375 1682.95,42.5781 Q1682.3094,42.7344 1681.6063,42.7344 Q1679.1063,42.7344 1677.7781,41.0938 Q1676.4656,39.4375 1676.4656,36.3125 Q1676.4656,33.1875 1677.7781,31.5313 Q1679.1063,29.875 1681.6063,29.875 Q1682.3094,29.875 1682.95,30.0313 Q1683.6063,30.1875 1684.1688,30.4844 L1684.1688,33.2031 Q1683.5438,32.625 1682.95,32.3594 Q1682.3563,32.0781 1681.7313,32.0781 Q1680.3875,32.0781 1679.7,33.1563 Q1679.0125,34.2188 1679.0125,36.3125 Q1679.0125,38.4063 1679.7,39.4844 Q1680.3875,40.5469 1681.7313,40.5469 Q1682.3563,40.5469 1682.95,40.2813 Q1683.5438,40 1684.1688,39.4219 L1684.1688,42.1406 Z "/><text fill="#000000" font-family="sans-serif" font-size="12" lengthAdjust="spacingAndGlyphs" textLength="61" x="1698.8" y="40.6543">UserInput</text><line style="stroke: #A80036; stroke-width: 1.5;" x1="1651" x2="1778" y1="52.5" y2="52.5"/><text fill="#000000" font-family="sans-serif" font-size="11" lengthAdjust="spacingAndGlyphs" textLength="117" x="1656" y="66.7104">bandwidth : Quantity</text><text fill="#000000" font-family="sans-serif" font-size="11" lengthAdjust="spacingAndGlyphs" textLength="110" x="1656" y="79.5151">elevation : Quantity</text><text fill="#000000" font-family="sans-serif" font-size="11" lengthAdjust="spacingAndGlyphs" textLength="67" x="1656" y="92.3198">n_pol : float</text><text fill="#000000" font-family="sans-serif" font-size="11" lengthAdjust="spacingAndGlyphs" textLength="109" x="1656" y="105.1245">obs_freq : Quantity</text><text fill="#000000" font-family="sans-serif" font-size="11" lengthAdjust="spacingAndGlyphs" textLength="116" x="1656" y="117.9292">sensitivity : Quantity</text><text fill="#000000" font-family="sans-serif" font-size="11" lengthAdjust="spacingAndGlyphs" textLength="83" x="1656" y="130.7339">t_int : Quantity</text><text fill="#000000" font-family="sans-serif" font-size="11" lengthAdjust="spacingAndGlyphs" textLength="83" x="1656" y="143.5386">weather : float</text><line style="stroke: #A80036; stroke-width: 1.5;" x1="1651" x2="1778" y1="150.1328" y2="150.1328"/><!--class atlast_sc.utils.Decorators--><rect fill="#FEFECE" filter="url(#f3jki4vccso89)" height="73.6094" id="atlast_sc.utils.Decorators" style="stroke: #A80036; stroke-width: 1.5;" width="210" x="1226.5" y="52.5"/><ellipse cx="1292.25" cy="68.5" fill="#ADD1B2" rx="11" ry="11" style="stroke: #A80036; stroke-width: 1.0;"/><path d="M1295.2188,74.1406 Q1294.6406,74.4375 1294,74.5781 Q1293.3594,74.7344 1292.6563,74.7344 Q1290.1563,74.7344 1288.8281,73.0938 Q1287.5156,71.4375 1287.5156,68.3125 Q1287.5156,65.1875 1288.8281,63.5313 Q1290.1563,61.875 1292.6563,61.875 Q1293.3594,61.875 1294,62.0313 Q1294.6563,62.1875 1295.2188,62.4844 L1295.2188,65.2031 Q1294.5938,64.625 1294,64.3594 Q1293.4063,64.0781 1292.7813,64.0781 Q1291.4375,64.0781 1290.75,65.1563 Q1290.0625,66.2188 1290.0625,68.3125 Q1290.0625,70.4063 1290.75,71.4844 Q1291.4375,72.5469 1292.7813,72.5469 Q1293.4063,72.5469 1294,72.2813 Q1294.5938,72 1295.2188,71.4219 L1295.2188,74.1406 Z "/><text fill="#000000" font-family="sans-serif" font-size="12" lengthAdjust="spacingAndGlyphs" textLength="70" x="1312.75" y="72.6543">Decorators</text><line style="stroke: #A80036; stroke-width: 1.5;" x1="1227.5" x2="1435.5" y1="84.5" y2="84.5"/><line style="stroke: #A80036; stroke-width: 1.5;" x1="1227.5" x2="1435.5" y1="92.5" y2="92.5"/><text fill="#000000" font-family="sans-serif" font-size="11" lengthAdjust="spacingAndGlyphs" textLength="198" x="1232.5" y="106.7104">validate_and_update_params(func)</text><text fill="#000000" font-family="sans-serif" font-size="11" lengthAdjust="spacingAndGlyphs" textLength="121" x="1232.5" y="119.5151">validate_update(func)</text><!--link atlast_sc.efficiencies.Efficiencies to atlast_sc.calculator.Calculator--><path d="M611.63,139.05 C656.45,177.83 722.07,234.59 785.64,289.58 " fill="none" id="atlast_sc.efficiencies.Efficiencies-atlast_sc.calculator.Calculator" style="stroke: #A80036; stroke-width: 1.0;"/><polygon fill="#FFFFFF" points="795.82,298.38,793.904,291.4281,786.75,290.5228,788.6659,297.4748,795.82,298.38" style="stroke: #A80036; stroke-width: 1.0;"/><!--link atlast_sc.temperatures.Temperatures to atlast_sc.calculator.Calculator--><path d="M981.5,139.05 C981.5,160.76 981.5,188.1 981.5,217.62 " fill="none" id="atlast_sc.temperatures.Temperatures-atlast_sc.calculator.Calculator" style="stroke: #A80036; stroke-width: 1.0;"/><polygon fill="#FFFFFF" points="981.5,230.85,985.5,224.85,981.5,218.85,977.5,224.85,981.5,230.85" style="stroke: #A80036; stroke-width: 1.0;"/><!--link atlast_sc.atmosphere_params.AtmosphereParams to atlast_sc.calculator.Calculator--><path d="M279.09,139.05 C407.18,197.4 624.7,296.48 783.81,368.95 " fill="none" id="atlast_sc.atmosphere_params.AtmosphereParams-atlast_sc.calculator.Calculator" style="stroke: #A80036; stroke-width: 1.0;"/><polygon fill="#FFFFFF" points="795.64,374.34,791.843,368.2095,784.7237,369.3565,788.5207,375.487,795.64,374.34" style="stroke: #A80036; stroke-width: 1.0;"/><!--link atlast_sc.utils.Decorators to atlast_sc.calculator.Calculator--><path d="M1297.3,126.5 C1266.82,158.6 1219.59,208.33 1170.87,259.62 " fill="none" id="atlast_sc.utils.Decorators-atlast_sc.calculator.Calculator" style="stroke: #A80036; stroke-width: 1.0;"/><polygon fill="#A80036" points="1167.36,263.32,1176.4564,259.5444,1170.8015,259.6929,1170.653,254.038,1167.36,263.32" style="stroke: #A80036; stroke-width: 1.0;"/><!--link atlast_sc.models.CalculationInput to atlast_sc.config.Config--><path d="M1524.28,503.24 C1496.59,564.09 1445.18,677.05 1412.2,749.54 " fill="none" id="atlast_sc.models.CalculationInput-atlast_sc.config.Config" style="stroke: #A80036; stroke-width: 1.0;"/><polygon fill="#A80036" points="1406.67,761.7,1412.7967,757.8969,1411.6426,750.7788,1405.5159,754.5819,1406.67,761.7" style="stroke: #A80036; stroke-width: 1.0;"/><!--link atlast_sc.calculator.Calculator to atlast_sc.models.DerivedParams--><path d="M981.5,702.64 C981.5,719.14 981.5,734.81 981.5,748.95 " fill="none" id="atlast_sc.calculator.Calculator-atlast_sc.models.DerivedParams" style="stroke: #A80036; stroke-width: 1.0;"/><polygon fill="#A80036" points="981.5,689.23,977.5,695.23,981.5,701.23,985.5,695.23,981.5,689.23" style="stroke: #A80036; stroke-width: 1.0;"/><!--link atlast_sc.models.InstrumentSetup to atlast_sc.models.CalculationInput--><path d="M1543.5,171.37 C1543.5,241.78 1543.5,341.99 1543.5,403.63 " fill="none" id="atlast_sc.models.InstrumentSetup-atlast_sc.models.CalculationInput" style="stroke: #A80036; stroke-width: 1.0;"/><polygon fill="#A80036" points="1543.5,416.92,1547.5,410.92,1543.5,404.92,1539.5,410.92,1543.5,416.92" style="stroke: #A80036; stroke-width: 1.0;"/><!--link atlast_sc.models.UserInput to atlast_sc.models.CalculationInput--><path d="M1682.94,158.52 C1649.98,229.53 1598.96,339.49 1568.63,404.85 " fill="none" id="atlast_sc.models.UserInput-atlast_sc.models.CalculationInput" style="stroke: #A80036; stroke-width: 1.0;"/><polygon fill="#A80036" points="1563.03,416.91,1569.1846,413.1522,1568.0829,406.0257,1561.9284,409.7835,1563.03,416.91" style="stroke: #A80036; stroke-width: 1.0;"/><!--link atlast_sc.calculator.Calculator to atlast_sc.config.Config--><path d="M1177.14,635.12 C1228.85,681.14 1280.95,727.51 1319.6,761.91 " fill="none" id="atlast_sc.calculator.Calculator-atlast_sc.config.Config" style="stroke: #A80036; stroke-width: 1.0;"/><polygon fill="#A80036" points="1167.16,626.23,1168.9838,633.2067,1176.1253,634.2065,1174.3015,627.2298,1167.16,626.23" style="stroke: #A80036; stroke-width: 1.0;"/><!--
@startuml calculator
set namespaceSeparator none
class "AtmosphereParams" as atlast_sc.atmosphere_params.AtmosphereParams {
  T_atm : Quantity
  tau_atm : float
  AtmosphereParams(obs_freq : Quantity, weather : float,
  elevation : Quantity)
}
class "CalculationInput" as atlast_sc.models.CalculationInput {
  T_cmb : Quantity
  instrument_setup : InstrumentSetup
  user_input : UserInput
}
class "Calculator" as atlast_sc.calculator.Calculator {
  bandwidth : Quantity
  dish_radius : Quantity
  elevation : Quantity
  eta_a : float
  eta_block : float
  eta_eff : float
  eta_ill : float
  eta_pol : float
  eta_s : float
  eta_spill : float
  g : float
  n_pol : float
  obs_freq : Quantity
  sefd : Quantity
  sensitivity : Quantity
  surface_rms : Quantity
  t_int : Quantity
  T_amb : Quantity
  T_atm : Quantity
  T_cmb : Quantity
  T_rx : Quantity
  T_sys  : Quantity
  tau_atm : float
  weather : float
  user_input : UserInput
  calculation_inputs : CalculationInput
  derived_parameters : DerivedParams
  instrument_setup : InstrumentSetup
  Calculator(user_input: dict, instrument_setup: dict)
  calculate_sensitivity(t_int, update_calculator): Quantity
  calculate_t_integration(sensitivity, update_calculator) : Quantity
  reset()
}
class "Config" as atlast_sc.config.Config {
  calculation_inputs : CalculationInput
  instrument_setup : InstrumentSetup
  user_input : UserInput
  Config(user_input: dict, instrument_setup: dict)
  reset()
}
class "DerivedParams" as atlast_sc.models.DerivedParams {
  T_atm : Quantity
  T_rx : Quantity
  T_sys : Quantity
  eta_a : float
  eta_s : float
  sefd : Quantity
  tau_atm : float
}
class "Efficiencies" as atlast_sc.efficiencies.Efficiencies {
  eta_a : float
  eta_s : float
  Efficiencies(obs_freq : Quantity, surface_rms : Quantity,
  eta_ill : float, eta_spill : float, eta_block : float, eta_pol : float)
}
class "InstrumentSetup" as atlast_sc.models.InstrumentSetup {
  T_amb : Quantity
  dish_radius : Quantity
  eta_block : float
  eta_eff : float
  eta_ill : float
  eta_pol : float
  eta_spill : float
  g : float
  surface_rms : Quantity
}
class "Temperatures" as atlast_sc.temperatures.Temperatures {
  T_rx : Quantity
  T_sys : Quantity
  Temperatures(obs_freq : Quantity, T_cmb : Quantity, T_amb : Quantity,
  g : float, eta_eff : float, atmosphere_params : AtmosphereParams)
}
class "UserInput" as atlast_sc.models.UserInput {
  bandwidth : Quantity
  elevation : Quantity
  n_pol : float
  obs_freq : Quantity
  sensitivity : Quantity
  t_int : Quantity
  weather : float
}
class "Decorators" as atlast_sc.utils.Decorators {
  validate_and_update_params(func)
  validate_update(func)
}
atlast_sc.efficiencies.Efficiencies - -o atlast_sc.calculator.Calculator
atlast_sc.temperatures.Temperatures - -o atlast_sc.calculator.Calculator
atlast_sc.atmosphere_params.AtmosphereParams - -o atlast_sc.calculator.Calculator
atlast_sc.utils.Decorators - -> atlast_sc.calculator.Calculator
atlast_sc.models.CalculationInput - -* atlast_sc.config.Config
atlast_sc.calculator.Calculator *- - atlast_sc.models.DerivedParams
atlast_sc.models.InstrumentSetup - -* atlast_sc.models.CalculationInput
atlast_sc.models.UserInput - -* atlast_sc.models.CalculationInput
atlast_sc.calculator.Calculator *- - atlast_sc.config.Config
@enduml

PlantUML version 1.2018.13(Mon Nov 26 17:11:51 GMT 2018)
(GPL source distribution)
Java Runtime: OpenJDK Runtime Environment
JVM: OpenJDK 64-Bit Server VM
Java Version: 11.0.17+8-post-Ubuntu-1ubuntu220.04
Operating System: Linux
OS Version: 5.10.102.1-microsoft-standard-WSL2
Default Encoding: UTF-8
Language: en
Country: null
--></g></svg>